<svg fill="none" height="32" viewBox="0 0 32 32" width="32" xmlns="http://www.w3.org/2000/svg"><g fill="#000"><path d="m16 3c-2.5712 0-5.0846.76244-7.22241 2.1909-2.13784 1.42845-3.80408 3.45878-4.78802 5.8342-.98394 2.3755-1.24138 4.9893-.73977 7.5111.50161 2.5217 1.73973 4.8381 3.55782 6.6562 1.81808 1.8181 4.13448 3.0562 6.65618 3.5578 2.5218.5016 5.1357.2442 7.5111-.7398 2.3754-.9839 4.4058-2.6501 5.8342-4.788 1.4285-2.1378 2.1909-4.6512 2.1909-7.2224-.0036-3.4467-1.3744-6.75118-3.8116-9.18837-2.4372-2.43718-5.7417-3.80799-9.1884-3.81163zm0 24c-2.1756 0-4.3023-.6451-6.11127-1.8538-1.80894-1.2087-3.21884-2.9267-4.0514-4.9367s-1.0504-4.2217-.62596-6.3555 1.47208-4.0938 3.01046-5.63217c1.53838-1.53838 3.49837-2.58603 5.63217-3.01047s4.3455-.2066 6.3555.62597c2.01.83256 3.728 2.24246 4.9367 4.0514 1.2087 1.80897 1.8538 3.93567 1.8538 6.11127-.0033 2.9164-1.1633 5.7123-3.2255 7.7745s-4.8581 3.2222-7.7745 3.2255z"/><path clip-rule="evenodd" d="m19.7333 10.6667v3.2c0 .4801-.1056.9354-.295 1.344 1.1168.4994 1.895 1.6202 1.895 2.9227v3.2h-7.4666c-1.7673 0-3.2-1.4327-3.2-3.2v-4.2667c0-1.7673 1.4327-3.2 3.2-3.2zm-2.1333 3.2c0 .5892-.4776 1.0667-1.0667 1.0667h-1.6v2.1333h3.2c.5891 0 1.0667.4776 1.0667 1.0667v1.0667h-5.3333c-.5891 0-1.0667-.4776-1.0667-1.0667v-4.2667c0-.5891.4776-1.0666 1.0667-1.0666h3.7333z" fill-rule="evenodd"/></g></svg>